PathFileType	4	(X/Y/Z)	C:/Users/opensim2020/Desktop/walking_exp_matlab/subject06_walking16_straight_04.trc																																																																																																																																																							
DataRate	CameraRate	NumFrames	NumMarkers	Units	OrigDataRate	OrigDataStartFrame	OrigNumFrames																																																																																																																																																			
100	100	7	51	mm	100	4053	352																																																																																																																																																			
Frame#	Time	LFHD			RFHD			LBHD			RBHD			C7			T10			CLAV			STRN			RBAK			LSHO			LUPA			LELB			LFRM			LWRA			LWRB			LFIN			RSHO			RUPA			RELB			RFRM			RWRA			RWRB			RFIN			LASI			RASI			LPSI			RPSI			LTHI			LKNE			LTIB			LANK			LHEE			LTOE			RTHI			RKNE			RTIB			RANK			RHEE			RTOE			*39			*40			*41			*42			*43			*44			*45			*46			*47			*48			*49			*50		
		X1	Y1	Z1	X2	Y2	Z2	X3	Y3	Z3	X4	Y4	Z4	X5	Y5	Z5	X6	Y6	Z6	X7	Y7	Z7	X8	Y8	Z8	X9	Y9	Z9	X10	Y10	Z10	X11	Y11	Z11	X12	Y12	Z12	X13	Y13	Z13	X14	Y14	Z14	X15	Y15	Z15	X16	Y16	Z16	X17	Y17	Z17	X18	Y18	Z18	X19	Y19	Z19	X20	Y20	Z20	X21	Y21	Z21	X22	Y22	Z22	X23	Y23	Z23	X24	Y24	Z24	X25	Y25	Z25	X26	Y26	Z26	X27	Y27	Z27	X28	Y28	Z28	X29	Y29	Z29	X30	Y30	Z30	X31	Y31	Z31	X32	Y32	Z32	X33	Y33	Z33	X34	Y34	Z34	X35	Y35	Z35	X36	Y36	Z36	X37	Y37	Z37	X38	Y38	Z38	X39	Y39	Z39	X40	Y40	Z40	X41	Y41	Z41	X42	Y42	Z42	X43	Y43	Z43	X44	Y44	Z44	X45	Y45	Z45	X46	Y46	Z46	X47	Y47	Z47	X48	Y48	Z48	X49	Y49	Z49	X50	Y50	Z50	X51	Y51	Z51
																																																																																																																																																										
221	2.2	74.0969	1661.8877	-1479.9668	73.46357	1647.33777	-1348.36597	-58.74475	1605.0127	-1481.8595	-58.12069	1596.09985	-1352.76758	-58.60564	1449.41199	-1421.13599	-96.14053	1120.10901	-1405.66675	47.78868	1369.1355	-1426.97302	82.90961	1194.33142	-1430.54663	-127.4842	1282.46436	-1329.76355	-18.75488	1398.91809	-1585.1731	-56.093	1200.03821	-1655.27051	-78.14439	1090.41687	-1667.85608	-72.82952	941.0603	-1694.93945	-23.37376	819.13275	-1656.89709	-85.99787	822.21613	-1692.57568	-56.63643	735.43542	-1692.97424	19.99672	1406.16577	-1263.60486	-8.51228	1209.86377	-1166.9563	5.98298	1088.58875	-1153.36145	41.84959	973.83459	-1141.7876	121.19888	849.98163	-1186.82959	74.05067	840.30621	-1139.43958	124.93049	773.44049	-1145.55273	81.80148	967.34424	-1524.49316	86.20409	963.95044	-1304.9491	-76.39414	986.6181	-1495.5144	-65.87098	989.33417	-1326.50208	80.23772	657.9519	-1598.49023	139.29495	506.97562	-1571.90247	176.69066	256.1337	-1571.35193	229.87495	89.88744	-1537.05518	198.99533	63.29218	-1489.70508	375.95926	99.83289	-1538.05713	7.22348	629.17786	-1263.82886	-8.35035	503.86066	-1287.68213	-108.73352	253.99785	-1296.35596	-165.71555	75.08595	-1341.58057	-210.134	53.01603	-1385.60718	-17.18946	38.38278	-1344.47632	-27.39069	1696.48425	-1419.75183	NaN	NaN	NaN	NaN	NaN	NaN	NaN	NaN	NaN	NaN	NaN	NaN	NaN	NaN	NaN	NaN	NaN	NaN	NaN	NaN	NaN	NaN	NaN	NaN	NaN	NaN	NaN	NaN	NaN	NaN	NaN	NaN	NaN
222	2.21	80.52858	1660.62024	-1480.89917	79.89082	1646.26843	-1349.29553	-52.13913	1603.60706	-1482.87659	-51.5921	1594.91235	-1353.75623	-51.82182	1448.20935	-1421.75635	-89.75414	1119.01892	-1406.13464	54.30662	1367.83777	-1427.67725	89.40636	1193.17004	-1431.01526	-120.99961	1281.55811	-1330.24207	-12.4571	1397.44849	-1585.68127	-51.43238	1198.98376	-1655.34705	-74.44269	1089.4657	-1667.73474	-70.26805	940.05511	-1694.80273	-21.24978	817.90979	-1657.0769	-84.10707	821.27637	-1692.11462	-55.0209	734.35645	-1692.95227	26.75109	1405.10632	-1264.28149	-1.6417	1208.87195	-1167.49146	12.7477	1087.57458	-1153.87097	48.57313	972.80554	-1142.32397	127.33949	848.62506	-1187.40466	80.56347	839.23517	-1139.89978	131.2679	772.28601	-1146.01331	88.62256	966.51093	-1524.60718	92.39633	962.862	-1305.12744	-69.75382	985.54553	-1496.18738	-59.64522	988.12341	-1327.08191	88.10876	657.45129	-1599.03674	146.74866	506.85345	-1571.94519	187.03183	255.9689	-1571.96326	242.65443	90.41437	-1537.73438	212.46217	63.10601	-1490.5387	388.73093	102.22887	-1538.20325	13.1254	628.01898	-1264.52747	-2.55778	502.6478	-1288.40796	-105.78947	253.81676	-1296.93005	-165.20547	75.68162	-1341.74512	-209.79903	53.81641	-1385.74182	-16.95427	38.32723	-1344.65527	-20.8585	1695.22058	-1420.9126	NaN	NaN	NaN	NaN	NaN	NaN	NaN	NaN	NaN	NaN	NaN	NaN	NaN	NaN	NaN	NaN	NaN	NaN	NaN	NaN	NaN	NaN	NaN	NaN	NaN	NaN	NaN	NaN	NaN	NaN	NaN	NaN	NaN
223	2.22	87.31884	1659.32019	-1481.96716	86.45626	1645.13708	-1350.33813	-45.49305	1602.1875	-1483.98181	-44.95535	1593.46509	-1354.58362	-45.05009	1447.06116	-1422.41943	-83.51231	1117.96985	-1406.70239	60.90997	1366.60156	-1428.42859	95.82269	1191.90503	-1431.53735	-114.35763	1280.66382	-1330.73999	-6.31212	1396.14636	-1586.42224	-46.45354	1197.86597	-1655.46484	-70.37347	1088.47729	-1667.59644	-67.40811	938.74286	-1694.18652	-18.49038	816.66602	-1657.55981	-81.86753	820.28314	-1691.58289	-53.12168	733.26532	-1692.9408	33.53672	1404.0542	-1265.00659	5.15207	1207.84326	-1168.09741	19.60608	1086.55164	-1154.53333	55.19217	971.7099	-1142.91614	134.05484	847.57605	-1187.95081	86.87148	838.09631	-1140.36194	137.60088	771.08569	-1146.54321	95.36296	965.68848	-1524.8302	98.52232	961.75616	-1305.42993	-63.14456	984.44482	-1496.82837	-53.47228	986.87921	-1327.66541	95.7542	656.81738	-1599.30664	154.46953	506.82144	-1571.68164	196.84914	255.70024	-1572.39404	254.33905	90.69262	-1538.29053	224.12566	63.23274	-1491.07336	400.43924	103.95197	-1538.69177	19.16208	626.83905	-1265.36938	3.51072	501.49615	-1289.28699	-102.60432	253.6244	-1297.54626	-164.5369	76.32703	-1341.89929	-209.4865	54.67447	-1385.91028	-16.68619	38.24494	-1344.83167	-14.3457	1693.93652	-1422.10107	NaN	NaN	NaN	NaN	NaN	NaN	NaN	NaN	NaN	NaN	NaN	NaN	NaN	NaN	NaN	NaN	NaN	NaN	NaN	NaN	NaN	NaN	NaN	NaN	NaN	NaN	NaN	NaN	NaN	NaN	NaN	NaN	NaN
224	2.23	93.97132	1658.00061	-1483.03381	93.00561	1644.052	-1351.3988	-38.71718	1600.77576	-1485.16223	-38.398	1592.31396	-1355.6947	-38.34631	1445.92749	-1423.21338	-77.31374	1116.94995	-1407.18579	67.55434	1365.27747	-1429.13232	102.29837	1190.68542	-1432.05945	-107.7605	1279.7782	-1331.24963	0.11727	1394.83252	-1587.09875	-41.16994	1196.70837	-1655.60364	-65.89632	1087.44238	-1667.39685	-64.07671	937.72797	-1694.06848	-15.42034	815.38641	-1657.97498	-79.21504	819.26044	-1691.06677	-50.81774	732.19257	-1692.93323	40.43621	1402.97034	-1265.75244	12.05275	1206.80127	-1168.81689	26.42867	1085.53662	-1155.19763	61.77349	970.64203	-1143.55408	140.24214	846.2323	-1188.66687	93.2759	836.99231	-1140.91895	143.96971	769.88202	-1147.13232	102.13368	964.84021	-1525.18188	104.67086	960.67096	-1305.8031	-56.63628	983.32196	-1497.51221	-47.32547	985.56268	-1328.29724	103.98307	656.52429	-1599.10327	162.33041	506.7211	-1571.43713	206.10558	255.37059	-1572.81604	265.29684	90.9515	-1538.67273	235.06282	63.13763	-1491.32715	411.04474	105.27508	-1539.32092	25.49783	625.57349	-1266.2749	9.54534	500.22311	-1290.15283	-99.33768	253.41852	-1298.12573	-163.79916	77.10113	-1342.00659	-209.04736	55.81913	-1385.82263	-16.38391	38.16943	-1345.06079	-7.704	1692.65784	-1423.40186	NaN	NaN	NaN	NaN	NaN	NaN	NaN	NaN	NaN	NaN	NaN	NaN	NaN	NaN	NaN	NaN	NaN	NaN	NaN	NaN	NaN	NaN	NaN	NaN	NaN	NaN	NaN	NaN	NaN	NaN	NaN	NaN	NaN
225	2.24	100.75375	1656.70349	-1484.16431	99.54626	1642.96313	-1352.48901	-31.8788	1599.38635	-1486.4259	-31.75442	1591.14282	-1356.86267	-31.55067	1444.77527	-1423.85767	-71.06227	1115.91943	-1407.74646	74.32648	1364.00354	-1429.93872	108.81489	1189.40454	-1432.69397	-101.1291	1278.94482	-1331.7522	6.63414	1393.49841	-1587.82886	-35.64489	1195.50427	-1655.76367	-61.09698	1086.42432	-1667.26086	-60.29087	936.8078	-1694.09351	-12.00622	814.05756	-1658.28723	-76.24342	818.27411	-1690.64856	-48.20219	731.07941	-1692.87158	47.37372	1401.91858	-1266.58862	18.92164	1205.77795	-1169.47803	33.2083	1084.50281	-1155.92834	68.36774	969.54132	-1144.27515	146.5006	844.94592	-1189.31042	99.73769	835.84381	-1141.73169	150.02574	768.61151	-1147.71448	108.83813	964.03082	-1525.64014	110.78381	959.64178	-1306.26636	-50.15437	982.15222	-1498.23254	-41.30694	984.245	-1329.03247	111.80906	655.96735	-1599.00232	170.08768	506.4758	-1571.36707	214.87695	254.87912	-1573.11829	274.78979	90.64944	-1538.97998	245.1163	62.82001	-1491.59961	420.84116	105.81801	-1539.97278	31.58801	624.43323	-1267.06958	15.86772	498.98926	-1291.13684	-95.98701	253.28589	-1298.64331	-163.09352	78.06057	-1342.05469	-208.64436	57.07131	-1385.85767	-16.12487	38.19021	-1345.28662	-1.11938	1691.35156	-1424.73547	NaN	NaN	NaN	NaN	NaN	NaN	NaN	NaN	NaN	NaN	NaN	NaN	NaN	NaN	NaN	NaN	NaN	NaN	NaN	NaN	NaN	NaN	NaN	NaN	NaN	NaN	NaN	NaN	NaN	NaN	NaN	NaN	NaN
226	2.25	107.53712	1655.4574	-1485.32263	106.16087	1641.90137	-1353.65247	-25.05968	1597.97803	-1487.6864	-25.08405	1589.96301	-1358.18982	-24.58452	1443.73633	-1424.77234	-64.79879	1114.96777	-1408.41541	81.10294	1362.71606	-1430.71509	115.27918	1188.15381	-1433.31104	-94.49715	1278.16882	-1332.37878	13.40201	1392.11267	-1588.58093	-29.89529	1194.27368	-1655.99121	-55.92083	1085.33667	-1667.22046	-56.07365	935.4743	-1693.69604	-8.5139	812.68726	-1658.49695	-72.87624	817.30731	-1690.24048	-45.24811	729.97083	-1692.79382	54.41912	1400.84424	-1267.39819	25.82668	1204.77661	-1170.23853	39.93016	1083.53149	-1156.64172	74.90397	968.4292	-1145.01501	153.0556	843.79614	-1190.02295	105.8567	834.66534	-1142.34351	156.18884	767.383	-1148.39417	115.61174	963.29865	-1526.25769	117.15739	958.7962	-1306.58154	-43.68461	980.92792	-1498.99878	-35.21549	982.8855	-1329.88489	119.55521	655.36792	-1598.88977	177.54704	505.95221	-1571.4425	223.04228	254.21014	-1573.33704	283.70627	90.30335	-1539.25806	254.28558	62.31025	-1491.65613	429.76169	105.97543	-1540.56812	37.92551	623.43634	-1267.83557	22.06284	497.95944	-1291.98499	-92.57275	253.3474	-1299.18787	-162.31825	79.23986	-1342.11536	-208.12717	58.61175	-1385.76892	-15.91857	38.24611	-1345.37915	5.58655	1690.08789	-1426.12866	NaN	NaN	NaN	NaN	NaN	NaN	NaN	NaN	NaN	NaN	NaN	NaN	NaN	NaN	NaN	NaN	NaN	NaN	NaN	NaN	NaN	NaN	NaN	NaN	NaN	NaN	NaN	NaN	NaN	NaN	NaN	NaN	NaN
227	2.26	114.37984	1654.21838	-1486.51746	112.73002	1640.89038	-1354.7782	-18.15222	1596.58594	-1489.04224	-18.43398	1588.95667	-1359.85583	-17.50251	1442.69397	-1425.5	-58.49545	1114.02991	-1409.13989	87.98816	1361.48755	-1431.59717	121.72876	1186.89746	-1433.9812	-87.80999	1277.4823	-1332.81689	19.96593	1390.91003	-1589.51526	-23.88101	1193.0625	-1656.3291	-50.36639	1084.24719	-1667.21143	-51.599	934.4931	-1693.66699	-4.39468	811.30151	-1658.57141	-69.09209	816.38458	-1689.85938	-41.89923	728.89166	-1692.74646	61.51451	1399.77881	-1268.31482	32.78439	1203.78479	-1170.99487	46.70874	1082.4906	-1157.48499	81.4398	967.33301	-1145.81335	159.04584	842.35303	-1190.89685	111.91293	833.45227	-1143.09375	162.74832	766.11133	-1149.09277	122.33476	962.56885	-1526.91797	123.46891	958.08691	-1307.0708	-37.15931	979.65826	-1499.95935	-29.14528	981.57538	-1330.81067	127.12777	654.74713	-1598.88611	184.55289	505.00989	-1571.47571	230.7755	253.43776	-1573.47205	292.18536	89.88654	-1539.38538	262.49448	61.74146	-1491.69714	437.90057	105.72474	-1540.95923	44.15145	622.51019	-1268.63391	28.37891	496.98746	-1292.8186	-89.19421	253.6077	-1299.60168	-161.51537	80.62073	-1342.09692	-207.69095	60.4261	-1385.71655	-15.63891	38.28063	-1345.63342	12.2676	1688.83301	-1427.57861	NaN	NaN	NaN	NaN	NaN	NaN	NaN	NaN	NaN	NaN	NaN	NaN	NaN	NaN	NaN	NaN	NaN	NaN	NaN	NaN	NaN	NaN	NaN	NaN	NaN	NaN	NaN	NaN	NaN	NaN	NaN	NaN	NaN
